<?xml version="1.0" encoding="utf-8"?>
<svg xmlns="http://www.w3.org/2000/svg" height="512pt" version="1.1" viewBox="0 0 512 512" width="512pt">
<path d="M 0.00 0.00 L 512.00 0.00 L 512.00 512.00 L 0.00 512.00 L 0.00 0.00 Z" fill="transparent" opacity="1.00" stroke="transparent" stroke-width="0.25"/>
<path d="M 399.02 30.17 C 401.35 26.47 404.39 22.58 408.95 21.72 C 414.90 20.77 420.90 23.93 424.53 28.54 C 427.59 32.27 426.89 37.74 424.97 41.84 C 422.22 47.02 419.07 52.00 415.53 56.67 C 411.26 55.23 406.98 53.82 402.80 52.16 C 400.73 51.11 398.63 50.13 396.45 49.34 C 394.28 48.61 392.07 48.03 389.88 47.39 C 390.11 46.81 390.58 45.65 390.81 45.08 C 393.16 39.91 396.05 35.00 399.02 30.17 Z" fill="#f97802" opacity="1.00" stroke="#f97802" stroke-width="0.25"/>
<path d="M 366.04 88.98 C 374.63 74.55 383.45 60.19 390.81 45.08 C 390.58 45.65 390.11 46.81 389.88 47.39 C 392.07 48.03 394.28 48.61 396.45 49.34 C 387.02 66.96 376.51 83.96 366.01 100.95 C 364.42 103.32 363.35 106.02 363.28 108.90 C 361.05 108.25 358.84 107.56 356.63 106.86 C 358.09 100.15 362.72 94.82 366.04 88.98 Z" fill="#b4b4b4" opacity="1.00" stroke="#b4b4b4" stroke-width="0.25"/>
<path d="M 396.45 49.34 C 398.63 50.13 400.73 51.11 402.80 52.16 C 403.31 52.60 404.34 53.48 404.86 53.92 C 399.65 63.22 393.63 72.04 388.07 81.14 C 381.72 91.02 376.30 101.71 368.13 110.26 C 366.51 109.80 364.89 109.35 363.28 108.90 C 363.35 106.02 364.42 103.32 366.01 100.95 C 376.51 83.96 387.02 66.96 396.45 49.34 Z" fill="#cfd1d1" opacity="1.00" stroke="#cfd1d1" stroke-width="0.25"/>
<path d="M 402.80 52.16 C 406.98 53.82 411.26 55.23 415.53 56.67 C 403.49 76.11 391.16 95.38 377.89 114.02 C 376.05 116.52 373.75 118.63 371.67 120.92 C 369.75 119.79 367.82 118.69 365.93 117.54 C 366.51 115.07 367.12 112.60 368.13 110.26 C 376.30 101.71 381.72 91.02 388.07 81.14 C 393.63 72.04 399.65 63.22 404.86 53.92 C 404.34 53.48 403.31 52.60 402.80 52.16 Z" fill="#737374" opacity="1.00" stroke="#737374" stroke-width="0.25"/>
<path d="M 356.63 106.86 C 358.84 107.56 361.05 108.25 363.28 108.90 C 364.89 109.35 366.51 109.80 368.13 110.26 C 367.12 112.60 366.51 115.07 365.93 117.54 C 362.69 115.52 359.38 113.62 356.04 111.79 C 356.37 110.17 356.53 108.51 356.63 106.86 Z" fill="#9d9e9f" opacity="1.00" stroke="#9d9e9f" stroke-width="0.25"/>
<path d="M 352.61 126.31 C 354.25 121.58 354.09 116.42 356.04 111.79 C 359.38 113.62 362.69 115.52 365.93 117.54 C 367.82 118.69 369.75 119.79 371.67 120.92 C 367.79 125.46 362.18 128.11 358.13 132.54 C 357.93 132.56 357.52 132.61 357.31 132.63 C 355.54 130.68 353.75 128.71 352.61 126.31 Z" fill="#000000" opacity="1.00" stroke="#000000" stroke-width="0.25"/>
<path d="M 357.31 132.63 C 357.52 132.61 357.93 132.56 358.13 132.54 C 372.52 134.72 387.24 131.25 401.60 133.99 C 417.06 137.69 429.87 149.65 435.84 164.23 C 437.39 168.07 438.52 172.40 437.35 176.50 C 436.65 178.76 434.69 180.21 432.82 181.48 C 429.50 180.09 425.82 180.88 422.34 180.71 C 418.50 179.81 416.93 176.02 415.14 172.95 C 411.41 166.39 406.52 160.05 399.56 156.71 C 394.79 154.15 389.27 153.97 384.00 153.81 C 370.01 153.68 356.02 153.69 342.03 153.67 C 337.28 153.67 332.34 153.89 328.00 156.02 C 321.63 158.96 316.80 164.65 314.39 171.18 C 312.41 175.90 311.65 181.85 306.69 184.53 C 303.48 184.68 300.26 184.55 297.06 184.33 L 295.94 184.26 C 291.68 180.83 290.71 175.09 291.74 169.96 C 294.39 155.54 304.39 142.67 317.65 136.44 C 330.08 130.50 344.17 134.01 357.31 132.63 Z" fill="#3d3c3d" opacity="1.00" stroke="#3d3c3d" stroke-width="0.25"/>
<path d="M 328.00 156.02 C 332.34 153.89 337.28 153.67 342.03 153.67 C 356.02 153.69 370.01 153.68 384.00 153.81 C 389.27 153.97 394.79 154.15 399.56 156.71 C 406.52 160.05 411.41 166.39 415.14 172.95 C 416.93 176.02 418.50 179.81 422.34 180.71 C 422.66 207.12 422.43 233.55 422.43 259.97 C 413.47 259.90 405.60 266.67 403.09 275.04 C 402.07 278.86 402.39 282.86 402.31 286.77 C 394.76 279.99 385.71 274.72 375.82 272.24 C 369.03 270.42 361.95 270.35 354.97 269.86 C 343.30 269.44 331.61 269.59 319.93 269.64 C 319.74 267.12 319.88 264.60 319.70 262.08 C 316.82 262.06 313.95 261.99 311.09 261.80 C 310.96 239.87 310.75 217.93 310.86 195.99 C 311.18 193.49 309.91 191.36 308.04 189.83 C 307.62 189.41 306.76 188.58 306.34 188.16 C 306.45 186.95 306.56 185.74 306.69 184.53 C 311.65 181.85 312.41 175.90 314.39 171.18 C 316.80 164.65 321.63 158.96 328.00 156.02 Z" fill="#ffffff" opacity="1.00" stroke="#ffffff" stroke-width="0.25"/>
<path d="M 422.34 180.71 C 425.82 180.88 429.50 180.09 432.82 181.48 C 432.34 208.65 432.79 235.84 432.53 263.02 C 432.48 275.17 432.45 287.33 432.72 299.48 C 432.55 348.19 432.39 396.90 432.70 445.62 C 434.57 445.61 436.44 445.66 438.32 445.75 C 438.46 447.33 438.58 448.90 438.71 450.50 C 433.47 450.01 428.21 450.40 422.97 450.31 C 422.82 448.88 422.69 447.45 422.59 446.03 C 422.45 398.30 422.49 350.57 422.44 302.84 C 422.53 288.55 422.47 274.26 422.43 259.97 C 422.43 233.55 422.66 207.12 422.34 180.71 Z" fill="#000000" opacity="1.00" stroke="#000000" stroke-width="0.25"/>
<path d="M 297.06 184.33 C 300.26 184.55 303.48 184.68 306.69 184.53 C 306.56 185.74 306.45 186.95 306.34 188.16 C 306.76 188.58 307.62 189.41 308.04 189.83 C 303.71 189.57 299.33 189.35 295.05 190.15 C 295.84 188.25 296.50 186.31 297.06 184.33 Z" fill="#8a898d" opacity="1.00" stroke="#8a898d" stroke-width="0.25"/>
<path d="M 291.37 195.07 C 291.29 192.82 293.00 190.85 295.05 190.15 C 299.33 189.35 303.71 189.57 308.04 189.83 C 309.91 191.36 311.18 193.49 310.86 195.99 C 310.75 217.93 310.96 239.87 311.09 261.80 C 304.68 261.46 298.25 261.72 291.83 261.84 C 291.20 249.14 292.11 236.41 291.35 223.72 C 291.29 214.17 291.12 204.61 291.37 195.07 Z" fill="#3c3c3c" opacity="1.00" stroke="#3c3c3c" stroke-width="0.25"/>
<path d="M 291.35 223.72 C 292.11 236.41 291.20 249.14 291.83 261.84 C 298.25 261.72 304.68 261.46 311.09 261.80 C 313.95 261.99 316.82 262.06 319.70 262.08 C 319.88 264.60 319.74 267.12 319.93 269.64 C 331.61 269.59 343.30 269.44 354.97 269.86 C 361.95 270.35 369.03 270.42 375.82 272.24 C 385.71 274.72 394.76 279.99 402.31 286.77 C 405.76 290.16 408.63 294.13 410.83 298.45 C 413.93 304.32 416.12 310.68 417.15 317.26 C 416.09 320.48 416.35 324.41 414.06 327.08 C 411.67 328.17 409.05 328.77 406.99 330.52 C 405.35 330.08 403.66 329.73 402.13 328.99 C 400.02 327.75 398.83 325.37 396.63 324.27 C 394.71 323.45 392.83 324.73 391.04 325.32 C 390.92 323.50 390.80 321.69 390.66 319.88 C 390.29 320.95 389.93 322.03 389.60 323.12 C 387.83 314.39 383.42 306.15 376.41 300.52 C 368.87 293.91 358.86 290.93 349.04 290.04 C 339.50 289.16 329.93 288.54 320.36 288.32 C 320.33 290.37 320.30 292.42 320.29 294.47 C 316.57 294.92 312.82 294.81 309.09 294.69 C 308.83 296.26 308.58 297.84 308.32 299.41 C 308.27 297.86 308.21 296.31 308.15 294.76 C 303.99 294.71 299.84 294.73 295.68 294.81 C 295.67 296.39 295.67 297.97 295.68 299.56 C 295.42 297.93 295.16 296.30 294.92 294.68 C 291.14 294.63 287.35 294.56 283.57 294.45 C 283.74 283.66 283.36 272.87 283.60 262.08 C 286.11 261.92 288.64 261.86 291.16 261.84 C 291.37 249.13 290.94 236.42 291.35 223.72 Z" fill="#797a7d" opacity="1.00" stroke="#797a7d" stroke-width="0.25"/>
<path d="M 432.53 263.02 C 438.71 257.00 448.33 257.39 455.92 260.16 C 466.35 264.14 472.48 276.37 469.76 287.14 C 467.02 299.06 454.03 307.63 441.98 304.94 C 438.31 304.32 435.28 302.04 432.72 299.48 C 432.45 287.33 432.48 275.17 432.53 263.02 Z" fill="#787a7c" opacity="1.00" stroke="#787a7c" stroke-width="0.25"/>
<path d="M 403.09 275.04 C 405.60 266.67 413.47 259.90 422.43 259.97 C 422.47 274.26 422.53 288.55 422.44 302.84 C 418.33 302.07 414.45 300.50 410.83 298.45 C 408.63 294.13 405.76 290.16 402.31 286.77 C 402.39 282.86 402.07 278.86 403.09 275.04 Z" fill="#9b9d9e" opacity="1.00" stroke="#9b9d9e" stroke-width="0.25"/>
<path d="M 295.68 294.81 C 299.84 294.73 303.99 294.71 308.15 294.76 C 308.21 296.31 308.27 297.86 308.32 299.41 C 304.11 299.69 299.89 299.68 295.68 299.56 C 295.67 297.97 295.67 296.39 295.68 294.81 Z" fill="#020203" opacity="1.00" stroke="#020203" stroke-width="0.25"/>
<path d="M 410.83 298.45 C 414.45 300.50 418.33 302.07 422.44 302.84 C 422.49 350.57 422.45 398.30 422.59 446.03 C 420.15 445.74 417.69 445.58 415.25 445.41 C 415.21 447.13 415.19 448.84 415.22 450.57 C 408.24 451.13 401.24 450.73 394.26 450.75 C 393.76 445.62 393.65 440.46 394.01 435.31 C 395.97 411.58 403.09 388.70 410.02 366.04 C 414.80 350.34 420.34 333.83 417.15 317.26 C 416.12 310.68 413.93 304.32 410.83 298.45 Z" fill="#ffffff" opacity="1.00" stroke="#ffffff" stroke-width="0.25"/>
<path d="M 414.06 327.08 C 416.35 324.41 416.09 320.48 417.15 317.26 C 420.34 333.83 414.80 350.34 410.02 366.04 C 403.09 388.70 395.97 411.58 394.01 435.31 C 393.60 434.12 393.15 432.96 392.70 431.80 C 383.65 429.50 374.25 428.89 364.94 429.00 C 359.31 428.44 353.15 427.98 348.47 424.45 C 346.33 422.69 343.42 422.94 340.84 422.65 C 340.29 421.88 339.74 421.11 339.20 420.35 C 350.16 410.67 358.14 398.20 365.94 385.97 C 373.49 373.74 380.71 361.19 385.81 347.71 C 388.82 339.88 390.18 331.49 389.60 323.12 C 389.93 322.03 390.29 320.95 390.66 319.88 C 390.80 321.69 390.92 323.50 391.04 325.32 C 392.83 324.73 394.71 323.45 396.63 324.27 C 398.83 325.37 400.02 327.75 402.13 328.99 C 403.66 329.73 405.35 330.08 406.99 330.52 C 409.05 328.77 411.67 328.17 414.06 327.08 Z" fill="#727477" opacity="1.00" stroke="#727477" stroke-width="0.25"/>
<path d="M 24.80 320.62 C 26.80 323.47 29.26 326.05 30.76 329.22 C 31.83 331.96 32.51 334.86 33.95 337.45 C 34.96 335.07 35.55 332.56 35.91 330.01 C 37.18 331.83 39.03 333.55 39.14 335.91 C 39.33 339.65 38.92 343.61 40.83 347.02 C 42.14 344.66 43.26 342.20 44.13 339.66 C 45.89 340.43 46.70 342.11 47.39 343.79 C 46.05 348.23 44.74 352.74 44.76 357.43 C 46.83 354.74 48.58 351.83 50.48 349.03 C 51.42 351.06 53.12 353.18 52.47 355.56 C 51.60 358.11 50.02 360.34 48.64 362.64 C 50.72 362.20 52.81 361.77 54.90 361.42 C 55.03 366.52 50.95 371.49 46.17 372.90 L 47.03 374.41 C 50.09 372.83 54.01 372.68 55.92 376.06 C 53.50 378.59 49.35 380.32 49.23 384.29 C 50.70 384.74 52.18 385.19 53.66 385.64 C 53.46 386.73 53.23 387.81 53.02 388.91 C 49.58 389.28 47.78 392.18 47.28 395.31 C 48.90 395.48 50.53 395.60 52.17 395.69 L 52.21 396.25 C 51.35 397.49 50.46 398.72 49.56 399.93 C 49.60 402.94 49.63 405.95 49.63 408.96 C 48.34 409.07 47.08 409.00 45.83 408.73 C 42.65 389.29 37.82 370.18 32.47 351.23 C 30.57 345.55 29.26 339.71 28.31 333.81 C 28.36 342.61 31.64 350.88 33.96 359.24 C 37.26 370.38 39.05 381.90 42.28 393.06 C 43.79 398.16 44.70 403.41 45.43 408.68 C 43.67 408.92 41.91 408.93 40.14 408.82 C 38.38 405.19 34.88 403.21 31.52 401.30 C 29.53 400.37 29.30 398.09 28.83 396.21 C 31.92 396.18 35.05 396.25 38.07 395.43 C 35.02 392.13 29.61 392.70 27.07 388.85 C 26.14 387.67 25.74 386.19 25.16 384.84 C 27.50 384.65 29.85 384.49 32.19 384.28 C 29.67 379.91 22.57 379.71 22.24 373.82 C 24.97 373.64 27.69 373.36 30.39 372.97 C 27.88 371.05 24.92 369.70 22.71 367.40 C 21.23 365.85 21.33 363.58 20.97 361.62 C 23.75 361.75 26.54 361.84 29.32 361.63 C 27.28 358.94 23.79 358.00 21.59 355.51 C 20.80 353.89 21.32 351.94 21.19 350.20 C 23.37 350.40 25.55 350.58 27.74 350.44 C 26.28 347.10 21.65 345.11 22.38 341.02 C 22.55 339.85 22.99 338.77 23.69 337.79 C 24.19 338.34 25.18 339.44 25.68 339.99 C 25.37 333.53 24.34 327.10 24.80 320.62 Z" fill="#868324" opacity="1.00" stroke="#868324" stroke-width="0.25"/>
<path d="M 33.96 359.24 C 31.64 350.88 28.36 342.61 28.31 333.81 C 29.26 339.71 30.57 345.55 32.47 351.23 C 37.82 370.18 42.65 389.29 45.83 408.73 L 45.43 408.68 C 44.70 403.41 43.79 398.16 42.28 393.06 C 39.05 381.90 37.26 370.38 33.96 359.24 Z" fill="#e3e6b2" opacity="1.00" stroke="#e3e6b2" stroke-width="0.25"/>
<path d="M 77.04 345.88 C 81.64 342.28 86.10 338.19 91.97 336.84 C 90.34 341.32 88.43 345.70 86.43 350.03 C 87.54 349.91 89.77 349.68 90.89 349.57 C 90.32 351.26 90.70 353.83 88.70 354.64 C 85.88 355.92 83.05 357.37 82.00 360.55 C 84.36 360.28 86.68 359.82 89.04 359.57 C 89.34 366.79 80.19 365.49 77.28 370.42 C 80.23 370.35 83.18 370.21 86.14 370.26 C 84.78 376.56 77.72 377.10 72.95 379.57 C 72.16 377.54 71.35 375.51 70.53 373.50 L 70.33 373.00 C 73.57 367.93 75.60 362.24 78.59 357.05 C 81.47 355.64 82.68 352.06 82.37 349.04 C 83.68 346.68 85.20 344.46 86.61 342.17 C 84.63 344.70 83.03 347.51 80.92 349.94 C 79.40 351.93 77.61 354.14 78.29 356.85 C 73.83 366.47 67.44 375.00 63.14 384.69 C 62.62 383.52 62.09 382.36 61.56 381.20 C 60.93 382.41 60.29 383.64 59.68 384.87 C 59.45 382.59 58.89 380.37 58.16 378.22 C 57.39 380.51 56.71 382.86 55.68 385.07 C 55.40 381.63 55.41 378.14 56.59 374.86 C 58.04 369.74 53.73 364.42 55.87 359.58 C 57.07 362.47 59.48 364.42 62.05 366.04 C 62.37 360.79 62.10 355.15 64.90 350.48 C 66.94 349.93 67.75 352.68 69.68 352.73 C 70.63 350.01 70.94 346.95 72.80 344.64 C 74.25 343.28 75.69 345.40 77.04 345.88 Z" fill="#c7c754" opacity="1.00" stroke="#c7c754" stroke-width="0.25"/>
<path d="M 264.39 347.61 C 289.67 347.39 314.95 347.32 340.23 347.73 C 340.36 350.90 340.39 354.09 340.26 357.27 C 336.28 357.55 332.29 357.57 328.30 357.51 C 326.95 357.49 325.62 357.50 324.29 357.56 C 304.38 357.77 284.45 357.85 264.55 357.38 C 264.51 354.12 264.42 350.86 264.39 347.61 Z" fill="#003c4c" opacity="1.00" stroke="#003c4c" stroke-width="0.25"/>
<path d="M 324.29 357.56 C 325.62 357.50 326.95 357.49 328.30 357.51 C 327.75 375.57 328.77 393.67 327.85 411.71 C 326.80 411.66 325.75 411.59 324.70 411.52 C 324.29 393.54 325.02 375.53 324.29 357.56 Z" fill="#020302" opacity="1.00" stroke="#020302" stroke-width="0.25"/>
<path d="M 61.73 391.98 C 64.46 385.76 65.69 378.54 70.53 373.50 C 71.35 375.51 72.16 377.54 72.95 379.57 C 73.13 380.02 73.48 380.92 73.65 381.37 C 76.35 381.31 79.07 381.14 81.75 381.51 C 82.96 382.95 81.03 384.16 80.26 385.27 C 77.54 388.57 72.73 388.35 69.51 390.82 L 69.17 392.43 C 72.12 392.37 75.06 392.27 78.01 392.28 C 77.51 393.62 77.34 395.18 76.37 396.30 C 72.71 398.39 67.51 397.67 64.81 401.33 C 67.25 401.29 69.70 401.19 72.15 401.14 C 69.96 403.72 66.94 405.23 63.89 406.56 C 62.75 409.37 59.77 409.48 57.14 409.49 C 57.70 403.45 59.94 397.74 61.73 391.98 Z" fill="#cbcb59" opacity="1.00" stroke="#cbcb59" stroke-width="0.25"/>
<path d="M 55.68 385.07 C 56.71 382.86 57.39 380.51 58.16 378.22 C 58.89 380.37 59.45 382.59 59.68 384.87 C 60.29 383.64 60.93 382.41 61.56 381.20 C 62.09 382.36 62.62 383.52 63.14 384.69 C 61.10 392.76 57.66 400.50 56.32 408.72 C 54.99 408.89 53.67 409.10 52.36 409.35 C 52.40 404.98 52.95 400.59 52.21 396.25 L 52.17 395.69 C 52.43 393.43 52.69 391.16 53.02 388.91 C 53.23 387.81 53.46 386.73 53.66 385.64 C 54.17 385.50 55.18 385.21 55.68 385.07 Z" fill="#d0d65a" opacity="1.00" stroke="#d0d65a" stroke-width="0.25"/>
<path d="M 128.53 386.96 C 130.56 385.57 133.25 386.35 135.56 385.99 C 135.11 390.71 135.13 395.47 135.75 400.18 C 134.19 400.22 132.63 400.14 131.08 400.03 C 130.48 399.95 129.28 399.77 128.67 399.69 C 128.43 395.46 127.86 391.17 128.53 386.96 Z" fill="#3b3426" opacity="1.00" stroke="#3b3426" stroke-width="0.25"/>
<path d="M 135.56 385.99 C 137.71 385.89 140.52 385.06 142.13 387.00 C 142.77 391.12 142.43 395.34 141.70 399.42 C 139.72 399.71 137.74 399.99 135.75 400.18 C 135.13 395.47 135.11 390.71 135.56 385.99 Z" fill="#2d2c24" opacity="1.00" stroke="#2d2c24" stroke-width="0.25"/>
<path d="M 47.28 395.31 C 47.78 392.18 49.58 389.28 53.02 388.91 C 52.69 391.16 52.43 393.43 52.17 395.69 C 50.53 395.60 48.90 395.48 47.28 395.31 Z" fill="#f8f8fa" opacity="1.00" stroke="#f8f8fa" stroke-width="0.25"/>
<path d="M 52.21 396.25 C 52.95 400.59 52.40 404.98 52.36 409.35 C 51.68 409.25 50.31 409.06 49.63 408.96 C 49.63 405.95 49.60 402.94 49.56 399.93 C 50.46 398.72 51.35 397.49 52.21 396.25 Z" fill="#e3e6b2" opacity="1.00" stroke="#e3e6b2" stroke-width="0.25"/>
<path d="M 145.09 398.48 C 148.69 396.53 152.90 397.09 156.81 397.29 C 156.54 397.74 155.99 398.64 155.72 399.09 C 152.16 399.46 148.59 399.12 145.09 398.48 Z" fill="#acc6cd" opacity="1.00" stroke="#acc6cd" stroke-width="0.25"/>
<path d="M 156.81 397.29 L 156.88 397.18 C 156.80 399.11 156.76 401.05 156.72 402.99 C 157.32 403.60 157.92 404.21 158.53 404.83 C 156.94 404.97 155.34 405.11 153.75 405.23 C 153.55 403.77 153.46 402.28 153.06 400.86 C 152.13 399.93 150.55 400.43 149.36 400.18 C 148.79 401.23 148.22 402.28 147.64 403.33 C 146.56 401.76 145.61 400.11 144.74 398.42 L 145.09 398.48 C 148.59 399.12 152.16 399.46 155.72 399.09 C 155.99 398.64 156.54 397.74 156.81 397.29 Z" fill="#cee2ee" opacity="1.00" stroke="#cee2ee" stroke-width="0.25"/>
<path d="M 128.95 399.86 L 129.53 399.98 C 131.72 400.46 133.93 400.77 136.15 401.15 C 134.49 401.84 133.45 403.10 133.74 404.97 C 133.48 420.28 133.41 435.61 133.58 450.93 C 132.14 450.93 130.71 450.92 129.28 450.90 C 128.84 433.88 129.39 416.86 128.95 399.86 Z" fill="#119db1" opacity="1.00" stroke="#119db1" stroke-width="0.25"/>
<path d="M 129.53 399.98 L 131.08 400.03 C 132.63 400.14 134.19 400.22 135.75 400.18 C 137.74 399.99 139.72 399.71 141.70 399.42 C 140.71 416.51 141.57 433.67 141.20 450.79 C 139.55 450.77 137.90 450.81 136.26 450.87 C 136.21 434.29 136.14 417.72 136.15 401.15 C 133.93 400.77 131.72 400.46 129.53 399.98 Z" fill="#097989" opacity="1.00" stroke="#097989" stroke-width="0.25"/>
<path d="M 133.74 404.97 C 133.45 403.10 134.49 401.84 136.15 401.15 C 136.14 417.72 136.21 434.29 136.26 450.87 C 135.59 450.88 134.25 450.91 133.58 450.93 C 133.41 435.61 133.48 420.28 133.74 404.97 Z" fill="#85d1dc" opacity="1.00" stroke="#85d1dc" stroke-width="0.25"/>
<path d="M 166.33 411.76 C 166.44 409.19 166.50 406.61 166.07 404.07 C 166.68 405.26 167.63 405.89 168.91 405.97 C 172.10 406.26 175.32 406.24 178.52 406.32 C 178.21 405.70 177.59 404.45 177.28 403.83 C 180.45 405.29 178.57 409.63 179.11 412.36 C 177.27 412.25 175.43 412.16 173.59 412.10 C 173.77 424.97 173.49 437.86 174.08 450.72 C 173.45 450.72 172.21 450.73 171.59 450.73 C 171.72 437.80 171.48 424.87 171.81 411.95 C 170.11 411.88 168.41 411.82 166.71 411.77 L 166.33 411.76 Z" fill="#deecf1" opacity="1.00" stroke="#deecf1" stroke-width="0.25"/>
<path d="M 166.07 404.07 C 169.80 403.71 173.54 403.94 177.28 403.83 C 177.59 404.45 178.21 405.70 178.52 406.32 C 175.32 406.24 172.10 406.26 168.91 405.97 C 167.63 405.89 166.68 405.26 166.07 404.07 Z" fill="#a6bbc4" opacity="1.00" stroke="#a6bbc4" stroke-width="0.25"/>
<path d="M 146.54 404.78 C 148.29 404.81 150.04 404.85 151.80 404.88 L 151.80 405.94 C 151.73 420.89 152.04 435.83 151.99 450.77 C 150.36 450.77 148.74 450.79 147.11 450.81 C 146.60 447.55 146.63 444.25 146.68 440.97 C 146.68 428.91 146.48 416.84 146.54 404.78 Z" fill="#888177" opacity="1.00" stroke="#888177" stroke-width="0.25"/>
<path d="M 151.80 405.94 C 152.29 405.76 153.27 405.41 153.75 405.23 C 154.61 420.39 153.97 435.59 154.21 450.76 C 153.65 450.76 152.54 450.77 151.99 450.77 C 152.04 435.83 151.73 420.89 151.80 405.94 Z" fill="#c9c7c3" opacity="1.00" stroke="#c9c7c3" stroke-width="0.25"/>
<path d="M 153.75 405.23 C 155.34 405.11 156.94 404.97 158.53 404.83 C 158.45 420.15 158.67 435.48 158.37 450.80 C 156.98 450.77 155.59 450.75 154.21 450.76 C 153.97 435.59 154.61 420.39 153.75 405.23 Z" fill="#73695c" opacity="1.00" stroke="#73695c" stroke-width="0.25"/>
<path d="M 20.96 411.02 C 23.53 409.06 27.03 409.89 30.03 409.66 C 43.68 409.35 57.33 409.44 70.99 409.75 C 73.01 409.78 74.98 410.19 76.95 410.63 C 77.22 411.00 77.77 411.74 78.05 412.11 C 77.58 414.96 77.42 417.87 76.61 420.65 C 75.54 422.51 72.92 422.23 71.07 422.45 C 59.71 422.45 48.34 422.36 36.97 422.38 C 31.59 422.44 26.00 421.74 20.87 423.80 C 19.26 419.79 18.72 414.89 20.96 411.02 Z" fill="#004c60" opacity="1.00" stroke="#004c60" stroke-width="0.25"/>
<path d="M 166.71 411.77 C 168.41 411.82 170.11 411.88 171.81 411.95 C 171.48 424.87 171.72 437.80 171.59 450.73 C 170.16 450.73 168.74 450.74 167.32 450.78 C 166.37 445.58 166.74 440.29 166.68 435.05 C 166.66 427.29 166.67 419.53 166.71 411.77 Z" fill="#d38043" opacity="1.00" stroke="#d38043" stroke-width="0.25"/>
<path d="M 173.59 412.10 C 175.43 412.16 177.27 412.25 179.11 412.36 C 179.19 425.15 179.66 437.98 178.56 450.74 C 177.07 450.72 175.57 450.71 174.08 450.72 C 173.49 437.86 173.77 424.97 173.59 412.10 Z" fill="#c37c4f" opacity="1.00" stroke="#c37c4f" stroke-width="0.25"/>
<path d="M 76.61 420.65 C 77.42 417.87 77.58 414.96 78.05 412.11 C 78.61 415.34 79.07 418.71 78.31 421.94 C 77.45 424.80 74.66 426.28 72.60 428.17 C 72.24 428.49 71.52 429.13 71.16 429.45 C 56.88 429.24 42.59 429.36 28.31 429.24 C 28.03 430.80 27.76 432.38 27.50 433.96 C 27.18 431.93 26.85 429.92 26.50 427.90 C 24.35 426.94 22.37 425.65 20.87 423.80 C 26.00 421.74 31.59 422.44 36.97 422.38 C 48.34 422.36 59.71 422.45 71.07 422.45 C 72.92 422.23 75.54 422.51 76.61 420.65 Z" fill="#002d39" opacity="1.00" stroke="#002d39" stroke-width="0.25"/>
<path d="M 320.95 427.73 C 327.82 428.02 334.10 424.68 339.20 420.35 C 339.74 421.11 340.29 421.88 340.84 422.65 C 343.42 422.94 346.33 422.69 348.47 424.45 C 353.15 427.98 359.31 428.44 364.94 429.00 C 374.25 428.89 383.65 429.50 392.70 431.80 C 393.15 432.96 393.60 434.12 394.01 435.31 C 393.65 440.46 393.76 445.62 394.26 450.75 C 349.38 450.75 304.50 450.78 259.62 450.85 C 260.01 438.88 270.71 427.33 283.06 427.69 C 295.69 427.55 308.32 427.96 320.95 427.73 Z" fill="#6d6f73" opacity="1.00" stroke="#6d6f73" stroke-width="0.25"/>
<path d="M 26.50 427.90 C 26.85 429.92 27.18 431.93 27.50 433.96 C 27.76 432.38 28.03 430.80 28.31 429.24 C 42.59 429.36 56.88 429.24 71.16 429.45 C 71.52 429.13 72.24 428.49 72.60 428.17 C 72.54 433.81 72.99 439.46 72.59 445.10 C 72.49 447.31 71.53 449.48 69.95 451.03 C 56.33 451.46 42.66 451.44 29.05 450.64 C 27.94 449.29 26.64 447.89 26.66 446.02 C 26.03 440.00 26.47 433.94 26.50 427.90 Z" fill="#003d4d" opacity="1.00" stroke="#003d4d" stroke-width="0.25"/>
<path d="M 415.25 445.41 C 417.69 445.58 420.15 445.74 422.59 446.03 C 422.69 447.45 422.82 448.88 422.97 450.31 C 420.38 450.30 417.79 450.36 415.22 450.57 C 415.19 448.84 415.21 447.13 415.25 445.41 Z" fill="#0e191d" opacity="1.00" stroke="#0e191d" stroke-width="0.25"/>
<path d="M 415.22 450.57 C 417.79 450.36 420.38 450.30 422.97 450.31 C 428.21 450.40 433.47 450.01 438.71 450.50 C 456.10 451.16 473.55 450.53 490.95 450.72 C 494.17 450.84 497.57 452.80 498.44 456.06 C 499.08 459.21 499.12 463.15 496.43 465.41 C 493.84 467.75 490.16 467.90 486.87 468.20 C 431.59 468.76 376.30 468.21 321.02 468.23 C 237.67 468.60 154.32 468.34 70.97 468.32 C 56.45 468.08 41.90 468.78 27.40 468.09 L 26.81 468.13 C 22.11 468.80 16.42 467.61 13.74 463.28 C 12.19 460.03 12.09 455.64 14.97 453.08 C 18.79 449.66 24.36 450.75 29.05 450.64 C 42.66 451.44 56.33 451.46 69.95 451.03 C 89.71 450.42 109.51 450.81 129.28 450.90 C 130.71 450.92 132.14 450.93 133.58 450.93 C 134.25 450.91 135.59 450.88 136.26 450.87 C 137.90 450.81 139.55 450.77 141.20 450.79 C 143.17 450.80 145.14 450.82 147.11 450.81 C 148.74 450.79 150.36 450.77 151.99 450.77 C 152.54 450.77 153.65 450.76 154.21 450.76 C 155.59 450.75 156.98 450.77 158.37 450.80 C 161.35 450.83 164.33 450.87 167.32 450.78 C 168.74 450.74 170.16 450.73 171.59 450.73 C 172.21 450.73 173.45 450.72 174.08 450.72 C 175.57 450.71 177.07 450.72 178.56 450.74 C 205.58 450.86 232.60 450.60 259.62 450.85 C 304.50 450.78 349.38 450.75 394.26 450.75 C 401.24 450.73 408.24 451.13 415.22 450.57 Z" fill="#00b2c3" opacity="1.00" stroke="#00b2c3" stroke-width="0.25"/>
<path d="M 70.97 468.32 C 154.32 468.34 237.67 468.60 321.02 468.23 C 376.30 468.21 431.59 468.76 486.87 468.20 C 487.63 472.58 482.71 475.10 479.01 475.21 C 331.35 475.01 183.70 475.17 36.03 475.17 C 32.10 475.21 27.14 472.53 27.40 468.09 C 41.90 468.78 56.45 468.08 70.97 468.32 Z" fill="#262a2c" opacity="1.00" stroke="#262a2c" stroke-width="0.25"/>
</svg>